<svg width="165px" height="34px" viewBox="0 0 165 34" version="1.1" xmlns="http://www.w3.org/2000/svg" xmlns:xlink="http://www.w3.org/1999/xlink">
    <!-- Generator: sketchtool 50.2 (55047) - http://www.bohemiancoding.com/sketch -->
    <title>385F1CF9-7559-4558-B6E0-9DD92B44DDCC</title>
    <desc>Created with sketchtool.</desc>
    <defs></defs>
    <g id="Page-1" stroke="none" stroke-width="1" fill="none" fill-rule="evenodd">
        <g id="Landing-Page" transform="translate(-515.000000, -202.000000)">
            <g id="1" transform="translate(510.000000, 140.000000)">
                <g id="Logo" transform="translate(0.000000, 59.000000)">
                    <text id="WatchTower" font-family="DINPro-Light, DIN Pro Light" font-size="24" font-weight="normal" letter-spacing="-1" fill="#FFFFFF">
                        <tspan x="50" y="29">WatchTowe</tspan>
                        <tspan x="160.064" y="29">r</tspan>
                    </text>
                    <g id="Shape">
                        <polygon points="0 0 40 0 40 40 0 40"></polygon>
                        <path d="M11.6666667,30 L15,30 L15,10 L11.6666667,10 L11.6666667,30 Z M18.3333333,36.6666667 L21.6666667,36.6666667 L21.6666667,3.33333333 L18.3333333,3.33333333 L18.3333333,36.6666667 Z M5,23.3333333 L8.33333333,23.3333333 L8.33333333,16.6666667 L5,16.6666667 L5,23.3333333 Z M25,30 L28.3333333,30 L28.3333333,10 L25,10 L25,30 Z M31.6666667,16.6666667 L31.6666667,23.3333333 L35,23.3333333 L35,16.6666667 L31.6666667,16.6666667 Z" fill="#FFFFFF" fill-rule="nonzero"></path>
                    </g>
                </g>
            </g>
        </g>
    </g>
</svg>
