<?xml version="1.0" encoding="UTF-8"?>
<svg width="30px" height="34px" viewBox="0 0 30 34" version="1.1" xmlns="http://www.w3.org/2000/svg" xmlns:xlink="http://www.w3.org/1999/xlink">
    <!-- Generator: sketchtool 50.2 (55047) - http://www.bohemiancoding.com/sketch -->
    <title>0F5C539E-613C-494D-B434-D6B7B4BC5D2B</title>
    <desc>Created with sketchtool.</desc>
    <defs></defs>
    <g id="Page-1" stroke="none" stroke-width="1" fill="none" fill-rule="evenodd">
        <g id="Fellows---off-track" transform="translate(-57.000000, -17.000000)">
            <g id="Header">
                <g id="Top" transform="translate(52.000000, 14.000000)">
                    <g id="Logo">
                        <polygon id="Shape" points="0 0 40 0 40 40 0 40"></polygon>
                        <path d="M11.6666667,30 L15,30 L15,10 L11.6666667,10 L11.6666667,30 Z M18.3333333,36.6666667 L21.6666667,36.6666667 L21.6666667,3.33333333 L18.3333333,3.33333333 L18.3333333,36.6666667 Z M5,23.3333333 L8.33333333,23.3333333 L8.33333333,16.6666667 L5,16.6666667 L5,23.3333333 Z M25,30 L28.3333333,30 L28.3333333,10 L25,10 L25,30 Z M31.6666667,16.6666667 L31.6666667,23.3333333 L35,23.3333333 L35,16.6666667 L31.6666667,16.6666667 Z" id="Shape" fill="#0459E4" fill-rule="nonzero"></path>
                    </g>
                </g>
            </g>
        </g>
    </g>
</svg>
