<?xml version="1.0" encoding="UTF-8"?>
<svg width="24px" height="24px" viewBox="0 0 24 24" version="1.1" xmlns="http://www.w3.org/2000/svg" xmlns:xlink="http://www.w3.org/1999/xlink">
    <!-- Generator: sketchtool 50.2 (55047) - http://www.bohemiancoding.com/sketch -->
    <title>56143B00-26D4-4029-B9BE-21B6C988DEF8</title>
    <desc>Created with sketchtool.</desc>
    <defs></defs>
    <g id="Page-1" stroke="none" stroke-width="1" fill="none" fill-rule="evenodd">
        <g id="Fellows---off-track" transform="translate(-594.000000, -92.000000)" fill="#BCBCBC">
            <g id="Header">
                <g id="Menu" transform="translate(594.000000, 92.000000)">
                    <g id="Fellows">
                        <g id="Icon">
                            <g id="Fill">
                                <path d="M19,17.5625 C19,18.3545 18.359,18.9995 17.571,18.9995 L6.429,18.9995 C5.641,18.9995 5,18.3545 5,17.5625 L5,17.1045 C5,15.9755 5.623,14.9515 6.625,14.4315 C7.884,13.7785 9.839,13.0005 12,13.0005 C14.161,13.0005 16.116,13.7785 17.375,14.4315 C18.377,14.9515 19,15.9755 19,17.1045 L19,17.5625 Z M12,4.9995 C13.93,4.9995 15.5,6.5705 15.5,8.4995 C15.5,10.4295 13.93,12.0005 12,12.0005 C10.07,12.0005 8.5,10.4295 8.5,8.4995 C8.5,6.5705 10.07,4.9995 12,4.9995 L12,4.9995 Z M12,0.0005 C5.383,0.0005 0,5.3835 0,12.0005 C0,18.6165 5.383,23.9995 12,23.9995 C18.617,23.9995 24,18.6165 24,12.0005 C24,5.3835 18.617,0.0005 12,0.0005 L12,0.0005 Z" id="Fill-151"></path>
                            </g>
                        </g>
                    </g>
                </g>
            </g>
        </g>
    </g>
</svg>
